<svg width="47" height="44" viewBox="0 0 47 44" fill="none" xmlns="http://www.w3.org/2000/svg">
<path d="M3.07831 17.6222V38.2472C3.07831 39.4628 3.56119 40.6286 4.42074 41.4881C5.28028 42.3476 6.44607 42.8305 7.66164 42.8305H39.745C40.9606 42.8305 42.1263 42.3476 42.9859 41.4881C43.8454 40.6286 44.3283 39.4628 44.3283 38.2472V17.6222" stroke="#D11242" stroke-width="1.5"/>
<path d="M30.1956 42.8305V29.0805C30.1956 27.865 29.7127 26.6992 28.8532 25.8396C27.9936 24.9801 26.8278 24.4972 25.6123 24.4972H21.0289C19.8134 24.4972 18.6476 24.9801 17.788 25.8396C16.9285 26.6992 16.4456 27.865 16.4456 29.0805V42.8305" stroke="#D11242" stroke-width="1.5" stroke-miterlimit="16"/>
<path d="M46.2029 16.1647L42.3208 2.57741C42.2386 2.29014 42.0651 2.03746 41.8266 1.85759C41.588 1.67773 41.2973 1.58047 40.9985 1.58054H31.7241L32.8127 14.6522C32.8291 14.8624 32.8955 15.0656 33.0063 15.245C33.1171 15.4243 33.2692 15.5747 33.4498 15.6834C34.3435 16.2174 36.0898 17.2028 37.4533 17.6222C39.7816 18.3395 43.1825 18.0805 45.1212 17.8422C45.3097 17.8178 45.4906 17.7526 45.6513 17.6511C45.812 17.5497 45.9486 17.4143 46.0516 17.2546C46.1546 17.0949 46.2215 16.9146 46.2476 16.7264C46.2737 16.5381 46.2585 16.3464 46.2029 16.1647Z" stroke="#D11242" stroke-width="1.5"/>
<path d="M28.2866 17.6222C29.5883 17.2212 31.2383 16.3068 32.1596 15.7614C32.3743 15.6335 32.5485 15.4476 32.6621 15.225C32.7756 15.0023 32.8238 14.7521 32.8012 14.5032L31.7241 1.58054H15.6825L14.6054 14.5032C14.5823 14.7525 14.6303 15.0032 14.7439 15.2263C14.8575 15.4493 15.0319 15.6357 15.2471 15.7637C16.1683 16.3068 17.8183 17.2212 19.12 17.6222C22.5414 18.6764 24.8652 18.6764 28.2866 17.6222Z" stroke="#D11242" stroke-width="1.5"/>
<path d="M5.08581 2.57741L1.20373 16.167C1.14893 16.3484 1.13428 16.5396 1.1608 16.7273C1.18731 16.915 1.25435 17.0947 1.35727 17.2539C1.46019 17.413 1.59652 17.5479 1.75679 17.6491C1.91706 17.7503 2.09743 17.8154 2.28539 17.8399C4.22185 18.0805 7.62498 18.3372 9.95331 17.6222C11.3169 17.2028 13.0654 16.2174 13.9569 15.6857C14.1377 15.5767 14.29 15.426 14.4008 15.2463C14.5116 15.0665 14.5778 14.8628 14.5939 14.6522L15.6825 1.58054H6.4081C6.10932 1.58047 5.81864 1.67773 5.58006 1.85759C5.34148 2.03746 5.16798 2.29014 5.08581 2.57741Z" stroke="#D11242" stroke-width="1.5"/>
</svg>

