<svg width="76" height="54" viewBox="0 0 76 54" fill="none" xmlns="http://www.w3.org/2000/svg">
<path d="M45.9135 29.8992C46.0251 30.1168 46.0422 30.3677 45.9612 30.5973C45.8802 30.8268 45.7075 31.0164 45.4809 31.1247L44.2171 31.7293C43.2848 32.1753 42.2568 32.4075 41.2145 32.4075C40.1722 32.4075 39.1442 32.1753 38.2119 31.7293L35.6861 30.5201C35.0201 30.2014 34.2857 30.0355 33.5411 30.0355C32.7965 30.0355 32.0622 30.2014 31.3962 30.5201L28.8704 31.7293C27.9378 32.1756 26.9095 32.4079 25.8668 32.4079C24.8242 32.4079 23.7958 32.1756 22.8633 31.7293L18.0581 29.4314L8.78799 31.2039C8.5455 31.2515 8.29314 31.2076 8.08369 31.0814C7.87424 30.9551 7.72392 30.7563 7.66417 30.5264C7.60441 30.2966 7.63985 30.0535 7.76308 29.8481C7.8863 29.6426 8.08776 29.4907 8.32533 29.4242L21.4058 25.6632L21.3211 25.5679C18.5884 22.4062 17.4036 19.007 17.2155 15.7643C16.9033 10.3676 19.478 5.6062 20.4899 3.73474L20.5049 3.70774C20.6196 3.49181 20.708 3.32985 20.772 3.20389C22.19 0.41469 25.7484 -0.751376 28.7124 0.546052C31.6915 1.85068 32.9986 5.17432 31.573 7.97972C31.4413 8.23884 31.304 8.50157 31.1686 8.76249C30.0778 10.8607 29.0227 12.9337 29.1506 15.1651C29.2108 16.2016 29.5549 17.3298 30.627 18.5715C31.7592 19.8815 33.9088 21.5442 37.9674 23.1854C41.4863 24.6087 44.3074 26.7681 45.9135 29.8992ZM56.5622 10.1121C59.106 10.1121 61.5457 11.079 63.3445 12.8001C65.1433 14.5212 66.1538 16.8555 66.1538 19.2895C66.1538 21.7235 65.1433 24.0578 63.3445 25.7789C61.5457 27.4999 59.106 28.4668 56.5622 28.4668C54.0183 28.4668 51.5786 27.4999 49.7798 25.7789C47.981 24.0578 46.9705 21.7235 46.9705 19.2895C46.9705 16.8555 47.981 14.5212 49.7798 12.8001C51.5786 11.079 54.0183 10.1121 56.5622 10.1121Z" fill="#D11242"/>
<path fill-rule="evenodd" clip-rule="evenodd" d="M0.535371 47.4857C0.859312 47.1109 1.32255 46.8709 1.82764 46.8162C2.33273 46.7614 2.84031 46.8963 3.24361 47.1923L6.29603 49.4489C7.12283 50.0567 8.14619 50.368 9.18806 50.3286C10.2299 50.2891 11.2244 49.9014 11.9984 49.2329L12.1677 49.089C13.6626 47.7993 15.6041 47.0855 17.6171 47.0855C19.63 47.0855 21.5715 47.7993 23.0665 49.089C23.8393 49.7558 24.8431 50.1248 25.8838 50.1248C26.9245 50.1248 27.9282 49.7558 28.7011 49.089C30.1961 47.7993 32.1376 47.0855 34.1505 47.0855C36.1634 47.0855 38.1049 47.7993 39.5999 49.089C41.1722 50.4566 43.6698 50.4494 45.2703 49.0566C48.2832 46.4312 53.0189 46.3754 56.0619 49.0242L56.1935 49.1394C57.7056 50.4566 60.0641 50.417 61.5254 49.0548C64.369 46.4024 68.9223 46.2386 71.9766 48.6805L74.6735 50.8363C75.4822 51.4841 75.5763 52.6178 74.8823 53.3736C74.5436 53.7367 74.0708 53.9599 73.5635 53.9962C73.0563 54.0324 72.5541 53.8789 72.1628 53.5679L69.4658 51.4121C68.7251 50.8247 67.7841 50.519 66.8227 50.5536C65.8613 50.5881 64.9469 50.9604 64.2543 51.5993C61.3204 54.3345 56.5941 54.4101 53.5624 51.7702L53.4307 51.6569C51.898 50.3216 49.4624 50.3288 47.9014 51.6874C44.849 54.3453 40.0513 54.4029 36.9669 51.718C36.194 51.0512 35.1902 50.6822 34.1496 50.6822C33.1089 50.6822 32.1051 51.0512 31.3322 51.718C29.8373 53.0077 27.8958 53.7215 25.8828 53.7215C23.8699 53.7215 21.9284 53.0077 20.4334 51.718C19.6605 51.0512 18.6568 50.6822 17.6161 50.6822C16.5754 50.6822 15.5717 51.0512 14.7988 51.718L14.6295 51.8638C13.1723 53.1202 11.3013 53.8486 9.34127 53.9226C7.38125 53.9966 5.45605 53.4114 3.89999 52.2687L0.849451 50.0139C0.651604 49.8703 0.486037 49.6899 0.362634 49.4837C0.239232 49.2775 0.160524 49.0496 0.131209 48.8136C0.101894 48.5776 0.122574 48.3384 0.192014 48.1103C0.261454 47.8821 0.37823 47.6697 0.535371 47.4857ZM0.535371 36.6887C0.859312 36.3139 1.32255 36.074 1.82764 36.0193C2.33273 35.9645 2.84031 36.0994 3.24361 36.3954L6.29603 38.652C7.12283 39.2598 8.14619 39.5711 9.18806 39.5317C10.2299 39.4922 11.2244 39.1045 11.9984 38.436L12.1677 38.2921C13.6626 37.0024 15.6041 36.2886 17.6171 36.2886C19.63 36.2886 21.5715 37.0024 23.0665 38.2921C23.8393 38.9589 24.8431 39.3279 25.8838 39.3279C26.9245 39.3279 27.9282 38.9589 28.7011 38.2921C30.1961 37.0024 32.1376 36.2886 34.1505 36.2886C36.1634 36.2886 38.1049 37.0024 39.5999 38.2921C41.1722 39.6597 43.6698 39.6525 45.2703 38.2597C48.2832 35.6342 53.0189 35.5785 56.0619 38.2273L56.1935 38.3425C57.7056 39.6597 60.0641 39.6201 61.5254 38.2579C64.369 35.6055 68.9223 35.4417 71.9766 37.8836L74.6735 40.0394C75.4822 40.6872 75.5763 41.8209 74.8823 42.5767C74.5436 42.9398 74.0708 43.163 73.5635 43.1993C73.0563 43.2355 72.5541 43.082 72.1628 42.771L69.4658 40.6152C68.7251 40.0278 67.7841 39.7221 66.8227 39.7567C65.8613 39.7912 64.9469 40.1635 64.2543 40.8024C61.3204 43.5376 56.5941 43.6132 53.5624 40.9733L53.4307 40.8599C51.898 39.5247 49.4624 39.5319 47.9014 40.8905C44.849 43.5484 40.0513 43.606 36.9669 40.9211C36.194 40.2543 35.1902 39.8853 34.1496 39.8853C33.1089 39.8853 32.1051 40.2543 31.3322 40.9211C29.8373 42.2108 27.8958 42.9246 25.8828 42.9246C23.8699 42.9246 21.9284 42.2108 20.4334 40.9211C19.6605 40.2543 18.6568 39.8853 17.6161 39.8853C16.5754 39.8853 15.5717 40.2543 14.7988 40.9211L14.6295 41.0669C13.1723 42.3233 11.3013 43.0517 9.34127 43.1257C7.38125 43.1997 5.45605 42.6145 3.89999 41.4718L0.849451 39.217C0.651604 39.0734 0.486037 38.893 0.362634 38.6868C0.239232 38.4806 0.160524 38.2527 0.131209 38.0167C0.101894 37.7807 0.122574 37.5415 0.192014 37.3134C0.261454 37.0852 0.37823 36.8728 0.535371 36.6887Z" fill="#D11242"/>
</svg>

