<svg width="57" height="55" viewBox="0 0 57 55" fill="none" xmlns="http://www.w3.org/2000/svg">
<path d="M52.9245 35.2924L57 31.393L52.9245 27.4935L42.75 37.2285L18.3255 13.8591L28.5 4.12406L24.4245 0.224609L20.349 4.12406L16.2735 0.224609L10.1745 6.06015L6.099 2.1607L2.0235 6.06015L6.099 9.95961L0 15.7952L4.0755 19.6946L0 23.5941L4.0755 27.4935L14.25 17.7585L38.6745 41.128L28.5 50.863L32.5755 54.7624L36.651 50.863L40.7265 54.7624L46.8255 48.9269L50.901 52.8263L54.9765 48.9269L50.901 45.0274L57 39.1919L52.9245 35.2924Z" fill="#D11242"/>
</svg>

