<svg width="56" height="53" viewBox="0 0 56 53" fill="none" xmlns="http://www.w3.org/2000/svg">
<path d="M27.9996 52.7624C23.602 52.2361 19.6722 51.1836 16.2103 49.6049C12.7484 48.0262 9.81319 45.9651 7.4048 43.4216C4.99268 40.8781 3.15598 37.9294 1.89471 34.5755C0.633441 31.2215 0.00187132 27.5045 0 23.4244C5.14612 23.9068 9.49694 24.7838 13.0524 26.0556C16.6079 27.3274 19.4973 29.1253 21.7204 31.4496C23.9416 33.7738 25.5435 36.6795 26.5259 40.1668C27.5084 43.654 27.9996 47.8525 27.9996 52.7624ZM27.9996 30.5944C26.9236 29.0596 25.4621 27.5466 23.6151 26.0556C21.7681 24.5646 19.6273 23.2051 17.1927 21.9772C17.4734 20.1354 17.9413 18.2277 18.5962 16.2543C19.2512 14.2809 20.0465 12.3409 20.9822 10.4341C21.9178 8.5256 22.9826 6.69428 24.1765 4.94014C25.3704 3.186 26.6448 1.58535 27.9996 0.138184C29.3563 1.58535 30.6316 3.186 31.8255 4.94014C33.0194 6.69428 34.0832 8.5256 35.017 10.4341C35.9527 12.3409 36.748 14.2801 37.403 16.2517C38.0579 18.2234 38.5258 20.131 38.8065 21.9746C36.3737 23.1586 34.2339 24.4962 32.3869 25.9872C30.5399 27.4782 29.0775 29.014 27.9996 30.5944ZM33.6135 51.7099C33.52 48.6401 33.2748 45.8002 32.8781 43.19C32.4814 40.5799 31.8611 38.1136 31.0171 35.7911C33.2159 32.2389 36.2456 29.3446 40.1061 27.1081C43.9666 24.8716 49.2643 23.6437 55.9992 23.4244C56.046 30.3532 54.0689 36.3287 50.068 41.3508C46.0672 46.3729 40.5823 49.8259 33.6135 51.7099Z" fill="#D11242"/>
</svg>

