<svg width="69" height="55" viewBox="0 0 69 55" fill="none" xmlns="http://www.w3.org/2000/svg">
<path d="M66.4571 49.3063H43.125V54.7598H66.6957C67.2153 54.7841 67.7279 54.6381 68.1474 54.3464C68.567 54.0547 68.868 53.6351 69 53.1578V51.8353C69 51.8353 68.9827 49.3063 66.4571 49.3063ZM63.2299 48.2292C64.7615 48.227 66.2296 47.6483 67.3115 46.6201C68.3935 45.5919 69.0008 44.1983 69 42.7457C69 39.7094 66.4125 37.2608 63.2299 37.2608C62.472 37.2621 61.7217 37.405 61.0221 37.6813C60.3224 37.9577 59.687 38.3621 59.1522 38.8715C58.6174 39.3809 58.1937 39.9852 57.9053 40.65C57.6168 41.3147 57.4694 42.0269 57.4712 42.7457C57.4712 45.771 60.0516 48.2292 63.2299 48.2292ZM51.0773 47.9429C54.1046 47.9429 56.5397 45.9196 56.5397 43.0525C56.5383 40.1907 54.0946 38.6896 51.0902 38.6678L43.125 39.6249V47.9429H51.0773ZM25.1893 12.4037C28.7241 12.4037 31.5833 9.67692 31.5833 6.31346C31.5833 2.95 28.7241 0.224609 25.1893 0.224609C21.6574 0.224609 18.7939 2.95 18.7939 6.31346C18.7939 9.67692 21.6574 12.4037 25.1893 12.4037ZM18.6602 32.1127L18.6027 32.0336L15.7047 25.6339L15.7004 38.3992H24.3613L26.2531 36.4905L21.1226 34.6172C19.9065 34.1837 19.0426 33.202 18.6602 32.1127ZM20.4959 31.5387C20.7762 32.1359 21.2951 32.6199 21.9478 32.8421L31.8334 36.3174C32.1346 36.4431 32.459 36.5111 32.788 36.5176C33.117 36.524 33.4441 36.4688 33.7505 36.355C34.0569 36.2413 34.3366 36.0712 34.5735 35.8547C34.8104 35.6381 34.9999 35.3793 35.1311 35.093C35.3987 34.513 35.4135 33.8561 35.1721 33.2657C34.9308 32.6754 34.453 32.1996 33.8431 31.9423L24.7221 28.6756L21.9046 22.2664L23.7418 21.6174L26.1294 27.1091L33.0625 29.5468V22.8363L36.7425 24.9127L38.5768 33.6765C38.6824 33.973 38.8489 34.2467 39.0668 34.4818C39.2846 34.7169 39.5494 34.9087 39.8459 35.0462C40.1424 35.1836 40.4647 35.2639 40.7941 35.2825C41.1235 35.3011 41.4536 35.2575 41.7651 35.1544C42.3926 34.9427 42.9067 34.5049 43.196 33.936C43.4853 33.3671 43.5264 32.7129 43.3104 32.1154L41.2548 23.6747C41.1201 23.2075 40.8383 22.7903 40.4469 22.4791C39.3932 21.372 34.0644 15.7208 33.6849 15.3431C33.1286 14.8141 31.8564 13.8584 29.4529 13.8584H20.8279C15.9261 13.8584 14.9831 18.603 15.985 21.0161L20.4959 31.5387ZM41.6875 39.7626H2.82756C1.41306 39.7626 0 40.5193 0 42.184V54.7598H41.6875V39.7626Z" fill="#D11242"/>
</svg>

