<svg width="205" height="57" viewBox="0 0 205 57" fill="none" xmlns="http://www.w3.org/2000/svg">
    <path d="M37.0864 46.9519H41.6523C42.5841 46.8606 43.6091 47.226 44.3545 47.8654C44.8205 48.3221 45.1 48.8702 45.0068 49.5096C45.0068 50.5144 44.4477 51.3365 43.5159 51.7019C44.7273 51.8846 45.5659 52.9808 45.5659 54.1683C45.5659 55.9952 44.075 56.9086 41.7455 56.9086H36.9932L37.0864 46.9519ZM43.2364 49.7837C43.2364 48.9615 42.5841 48.5048 41.4659 48.5048H38.95V51.1538H41.3727C42.4909 51.1538 43.2364 50.6971 43.2364 49.7837ZM41.6523 52.6154H38.8568V55.3558H41.9318C43.1432 55.3558 43.8886 54.899 43.8886 53.9856C43.7955 53.1635 43.1432 52.7067 41.6523 52.6154ZM68.675 46.9519H70.6318L73.0545 54.351L75.5704 46.9519H77.0614L79.5773 54.351L82 46.9519H83.8636L80.3227 57H78.8318L76.3159 49.7837L73.8 57H72.3091L68.675 46.9519ZM91.5977 53.0721L87.4977 46.9519H89.6409L92.5295 51.4279L95.4182 46.9519H97.4682L93.3682 52.9808V57H91.5045V53.0721H91.5977ZM52.7409 53.0721L48.6409 46.9519H50.7841L53.6727 51.4279L56.5614 46.9519H58.6114L54.5114 52.9808V57H52.6477V53.0721H52.7409ZM102.034 46.9519H103.711L109.209 53.8942V46.9519H110.98V57H109.489L103.898 49.875V57H102.127L102.034 46.9519ZM116.757 46.9519H120.577C123.373 46.7692 125.795 48.8702 125.982 51.6106C125.982 51.7019 125.982 51.7933 125.982 51.976C125.982 54.7163 123.652 57 120.857 57C120.764 57 120.67 57 120.484 57H116.664V46.9519H116.757ZM118.527 48.5048V55.3558H120.577C122.441 55.4471 124.025 54.1683 124.118 52.3413C124.118 52.25 124.118 52.0673 124.118 51.976C124.211 50.149 122.72 48.5962 120.857 48.5962C120.764 48.5962 120.67 48.5962 120.484 48.5962L118.527 48.5048ZM130.548 46.9519H132.318V51.1538H137.257V46.9519H139.027V57H137.164V52.7981H132.318V57H130.455L130.548 46.9519ZM147.507 46.9519H149.277L153.75 57H151.886L150.861 54.5337H146.016L144.991 57H143.127L147.507 46.9519ZM150.116 52.9808L148.345 49.0529L146.575 53.0721L150.116 52.9808ZM157.85 46.9519H159.807L162.882 51.7019L165.957 46.9519H167.914V57H166.143V49.7837L162.882 54.5337L159.714 49.7837V56.9086H157.943L157.85 46.9519ZM202.67 7.85577C203.975 7.85577 205 8.86058 205 10.1394C205 11.4183 203.975 12.4231 202.67 12.4231C201.366 12.4231 200.341 11.4183 200.341 10.1394C200.341 8.86058 201.366 7.85577 202.67 7.85577ZM202.67 8.22115C201.552 8.22115 200.714 9.04327 200.62 10.0481C200.527 11.0529 201.459 11.9663 202.484 12.0577C203.602 12.0577 204.441 11.2356 204.534 10.2308V10.1394C204.534 9.04327 203.789 8.22115 202.67 8.22115ZM202.111 11.4183H201.739V8.76923H202.764C203.416 8.76923 203.695 9.04327 203.695 9.5C203.695 9.86538 203.416 10.2308 203.043 10.2308L203.789 11.4183H203.323L202.577 10.3221H202.205L202.111 11.4183ZM202.111 9.86538H202.577C203.043 9.86538 203.23 9.77404 203.23 9.40865C203.23 9.04327 203.136 9.04327 202.67 9.04327H202.111V9.86538ZM46.9636 7.85577L58.9841 36.7212H54.0455L50.5045 28.1346H39.7886L36.1545 36.7212H31.4023L43.7023 7.85577H46.9636ZM45.1932 14.9808L41.3727 24.2067H48.9205L45.1932 14.9808ZM97.375 8.40385L100.73 36.7212H95.9773L94.0205 17.9952L85.2614 36.7212H82.3727L73.7068 18.4519L71.6568 36.7212H67.1841L70.725 8.40385H73.9864L84.1432 29.7788L94.1136 8.40385H97.375ZM121.136 7.85577L108.93 36.7212H113.775L117.409 28.0433H128.125L131.666 36.7212H136.698L124.584 7.85577H121.136ZM126.355 24.2067H118.807L122.627 14.9808L126.355 24.2067ZM153.657 8.3125C152.632 8.3125 150.582 8.3125 148.345 8.49519L146.109 8.58654V36.5385H146.575C148.998 36.7212 150.582 36.8125 152.725 36.8125C156.08 36.9038 159.434 36.4471 162.695 35.4423C167.634 33.6154 170.989 28.5 170.989 22.6538C171.082 18.726 169.498 14.9808 166.702 12.2404C163.627 9.68269 159.248 8.3125 153.657 8.3125ZM150.861 32.5192V12.4231C151.607 12.4231 152.073 12.4231 152.725 12.4231C155.334 12.3317 157.943 12.8798 160.366 13.8846C163.907 15.7115 166.05 19.274 165.864 23.2019C165.957 25.6683 165.025 28.0433 163.441 29.8702C161.577 31.9712 158.875 32.8846 154.309 32.8846C153.191 32.8846 152.073 32.7933 150.861 32.5192ZM189.625 7.85577L177.418 36.7212H182.264L185.805 28.0433H196.52L200.061 36.7212H205L192.886 7.85577H189.625ZM194.843 24.2067H187.389L191.209 14.9808L194.843 24.2067ZM16.1205 19.3654L26.8364 35.2596L21.9909 37.4519L9.87727 19L10.8091 16.9904H10.9955C15.4682 16.4423 18.3568 13.7019 18.3568 9.95673C18.3568 5.84615 16.1205 3.92788 10.8091 3.92788C9.69091 3.92788 6.33636 4.01923 5.31136 4.01923V36.6298H0V0.274038H0.279545C0.372727 0.274038 9.03864 0 10.8091 0C14.2568 0 23.575 0 23.575 9.5C23.575 16.1683 17.9841 18.5433 16.1205 19.3654Z" fill="#D11242"/>
</svg>
